<?xml version="1.0" encoding="utf-8" ?>
<svg xmlns="http://www.w3.org/2000/svg" xmlns:xlink="http://www.w3.org/1999/xlink" width="1024" height="768">
	<rect fill="yellow" width="1024" height="768"/>
	<path fill="none" stroke="aqua" stroke-width="3" stroke-miterlimit="10" d="M53.2959 146.072C53.1006 147.475 53.2471 149.221 54.8462 149.819C57.605 151.98 61.8042 153.127 65.0513 152.981C68.2495 152.871 72.2534 152.822 74.8047 150.771C78.5522 147.781 74.9023 143.471 71.9482 141.628C67.7002 139.175 63.147 137.82 58.9966 134.975C57.7515 134.524 58.606 133.474 59.3506 133.23C62.146 131.57 65.5029 131.679 68.7988 131.521C69.751 130.679 69.9463 129.873 69.751 128.677C69.0552 126.931 67.749 126.98 65.9546 126.821C63.0005 127.029 59.8511 127.871 57.1045 128.97C55.7495 129.824 54.1016 130.019 52.6489 130.581C51.5503 131.423 50.6958 132.522 50.7446 134.023C50.9521 135.427 52.1484 135.879 52.9541 136.88C55.5054 138.821 58.7036 140.371 61.853 141.323C63.0493 142.031 69.397 144.924 70.9961 146.072C71.4966 146.572 71.3989 147.329 70.7031 147.622C70.3003 147.781 68.2007 148.281 67.8467 148.281C64.6973 148.22 61.3037 148.721 58.6548 146.67C57.3486 145.425 55.9448 144.778 54.248 144.472C54.0039 145.022 53.6011 145.522 53.2959 146.072ZM85.0968 142.422C87.5015 146.072 90.297 148.879 94.3009 150.625C95.546 150.722 96.547 150.222 97.4503 149.429C97.7554 148.122 98.2559 146.12 97.1451 144.973C96.7545 144.228 95.9976 144.277 95.253 144.326C94.7525 144.521 94.2032 144.778 93.6539 144.68C90.7486 143.423 89.0518 140.273 87.9532 137.38L87.9532 137.075C93.898 134.023 94.7525 133.327 94.6549 133.23C95.0455 133.12 95.7047 132.876 96.901 132.424C98.0972 132.119 99.4522 132.18 100.099 131.179C100.197 130.679 99.3546 129.079 98.9517 128.628C98.3536 128.371 97.8043 128.274 97.255 128.274C95.5948 128.274 94.1544 129.177 92.4942 129.922C90.004 130.727 90.5045 130.727 83.8516 133.279C83.5953 133.376 83.3023 133.181 83.2047 132.973C83.2047 130.971 83.2047 128.921 83.2047 126.931C83.2047 126.675 83.046 124.477 82.8995 123.769C82.753 122.72 82.2525 119.57 82.2525 119.375C81.8985 118.423 81.1539 116.775 79.8966 117.08C79.1519 117.031 78.7979 117.178 78.4439 117.776C78.505 119.826 78.2974 121.67 78.7979 123.769L78.7979 138.027C78.9444 138.821 79.2008 139.822 79.1031 140.578C79.0543 142.373 78.7979 143.081 77.504 144.021C76.9547 145.473 77.0035 147.427 77.8458 148.769C78.3463 149.673 79.3961 149.819 80.3482 149.673C81.4469 149.026 82.106 147.72 82.5943 146.572C83.5465 144.875 83.3023 142.373 83.6441 140.53L84.047 140.53C84.0958 140.53 84.1446 140.53 84.1446 140.578C84.6939 140.92 84.8038 141.628 85.0968 142.422ZM103.294 136.172C102.745 139.077 102.647 144.326 102.647 147.524C102.953 148.428 103.648 149.77 104.552 150.32C105.003 150.674 105.504 150.93 106.004 150.93C106.395 150.93 106.798 150.722 107.103 150.32C107.945 148.879 108.995 147.329 108.055 145.62C107.347 142.971 107.848 140.322 107.701 137.624C108.202 136.172 109.044 135.122 109.947 133.926C109.996 133.877 110.204 133.62 110.252 133.62C111.949 132.68 113.805 133.022 115.599 132.973C117.601 133.12 119.005 134.28 120.897 135.329C121.751 135.72 123.253 135.976 124.144 135.83C124.803 135.671 124.449 134.231 124.498 133.62C123.094 132.229 120.055 130.178 118.456 129.177C116.954 128.371 114.806 127.981 112.706 127.981C110.948 127.981 109.251 128.274 108.055 128.872C105.748 130.971 103.856 132.925 103.294 136.172ZM148.806 139.822C148.598 141.775 148.903 143.972 150.051 145.522C151.796 147.781 154.604 149.331 157.35 150.222C159.804 150.979 162.148 151.321 164.65 151.772C166.445 152.273 167.849 152.627 169.704 152.419C170.644 152.126 171.999 151.174 172.255 150.222C172.353 149.77 171.706 148.721 171.303 148.379L165.248 147.073C162.697 146.621 160.048 146.23 157.595 145.278C156.252 144.778 155.153 143.825 154.201 142.678C153.005 142.08 153.896 139.822 153.847 139.175C155.349 137.075 156.948 134.78 159.548 134.121C160.805 134.072 161.953 133.877 163.1 134.621C163.649 134.927 164.394 136.929 164.65 137.575C165.053 138.674 166.298 138.174 167.153 138.222C167.751 138.174 168.203 137.429 168.447 136.977C168.544 135.378 168.496 133.572 167.495 132.229C166.054 130.776 164.345 128.921 162.099 129.031C158.852 128.42 155.446 130.019 153.249 132.522C150.649 134.719 149.294 136.575 148.806 139.822ZM193.498 142.373C195.451 144.472 197.404 147.219 199.504 149.026L199.699 149.123C201.103 149.88 201.799 150.576 203.3 150.222C204.045 150.027 205.046 149.673 205.497 149.026C205.595 148.672 205.949 148.074 205.851 147.72C205.705 147.573 205.351 147.17 205.204 147.121C204.106 146.975 203.605 146.12 202.348 145.229C201.945 144.729 200.199 143.471 199.797 142.971C198.295 140.53 196.745 137.527 195.402 134.78C194.999 134.17 194.206 133.828 193.498 133.523C193.351 133.376 192.9 133.022 192.851 132.876C193.254 131.924 191.85 131.679 191.301 131.277C189.799 131.13 188.151 130.874 186.552 130.874C184.501 130.874 182.499 131.228 180.851 132.571C178.056 134.927 174.345 137.771 174.199 141.726C173.649 143.972 174.845 145.779 176.103 147.72C177.397 149.27 179.85 150.173 181.901 149.929C186.296 149.978 189.799 146.621 192.546 143.63C192.753 143.276 193.144 142.629 193.498 142.373ZM178.947 143.923C178.398 142.922 177.897 141.726 178.654 140.774C180.351 138.369 182.402 135.476 185.246 135.073C187.248 134.621 189.054 134.829 190.995 134.377C191.044 135.024 190.702 136.379 190.654 136.977C190.446 138.674 189.396 140.42 188.444 141.726C187.053 143.276 186.247 144.021 184.001 144.875C183.244 145.071 182.45 145.278 181.645 145.278C180.595 145.278 179.594 144.924 178.947 143.923ZM220.244 135.976C220.402 135.879 220.598 135.928 220.744 135.928C221.049 136.025 221.794 136.831 222.148 137.221C222.649 138.027 222.697 139.529 223.1 140.371C223.296 142.422 223.796 144.826 224.345 146.731C224.895 147.427 225.395 148.379 225.944 149.221C226.054 149.624 226.298 149.721 226.555 149.721C227.055 149.721 227.702 149.331 228.154 149.221C228.703 148.83 228.85 147.927 228.801 147.329C228.801 147.17 228.154 145.681 228.154 145.425L227.202 141.323C227.202 138.479 226.701 135.928 225.652 133.474C224.846 132.18 223.296 129.421 221.696 129.922C220.598 129.971 219.646 129.726 218.901 130.679C217.351 131.875 216.899 133.022 215.8 134.377C215.398 134.878 213.152 137.124 212.651 137.527C212.651 137.27 212.7 136.477 212.7 135.671C212.7 134.023 212.7 133.523 212.346 132.18C211.845 131.423 211.003 131.179 210.1 131.179C209.05 131.13 208.244 131.826 208.244 132.925L208.244 133.12C208.244 133.23 208.244 133.376 208.305 133.572L208.501 134.878C208.549 135.073 208.549 135.22 208.549 135.329C208.244 137.881 208.049 142.58 207.597 144.826C207.597 145.119 207.5 146.023 207.597 146.377L209.795 148.623C210.503 148.769 211.003 148.623 211.406 147.976C212.053 146.474 213.444 144.375 214.25 142.922C215.849 140.481 217.9 137.978 220.244 135.976ZM230.996 128.078C230.544 128.921 230.654 130.227 230.703 131.228C231.301 132.278 232.498 134.328 232.9 135.378C233.401 137.673 234.097 139.98 234.805 142.031C236.05 144.619 237.002 146.621 239.248 148.623C240.054 149.331 240.2 149.331 241.299 149.331C242.495 149.429 242.544 149.221 243.496 148.525C245.803 146.975 247.048 145.022 248.745 142.776C251.455 139.431 253.445 136.172 255.703 132.18C255.996 131.472 256.655 130.227 256.655 129.678C256.655 128.677 255.898 127.627 255.044 127.48C254.348 127.419 253.396 127.224 252.847 127.773C251.296 129.873 250.698 132.571 249.355 134.719C247.695 137.771 245.754 140.029 243.203 143.081C242.703 143.52 242.105 143.728 241.445 143.569C239.15 143.081 238.406 139.577 237.649 137.881C236.904 134.927 236.245 131.728 236.099 128.725C235.806 127.724 234.597 126.125 233.547 126.528C232.205 126.577 231.899 127.224 230.996 128.078ZM276.348 142.373C278.301 144.472 280.254 147.219 282.354 149.026L282.549 149.123C283.953 149.88 284.649 150.576 286.15 150.222C286.895 150.027 287.896 149.673 288.347 149.026C288.445 148.672 288.799 148.074 288.701 147.72C288.555 147.573 288.201 147.17 288.054 147.121C286.956 146.975 286.455 146.12 285.198 145.229C284.795 144.729 283.049 143.471 282.647 142.971C281.145 140.53 279.595 137.527 278.252 134.78C277.849 134.17 277.056 133.828 276.348 133.523C276.201 133.376 275.75 133.022 275.701 132.876C276.104 131.924 274.7 131.679 274.151 131.277C272.649 131.13 271.001 130.874 269.402 130.874C267.351 130.874 265.349 131.228 263.701 132.571C260.906 134.927 257.195 137.771 257.048 141.726C256.499 143.972 257.695 145.779 258.953 147.72C260.247 149.27 262.7 150.173 264.751 149.929C269.146 149.978 272.649 146.621 275.396 143.63C275.603 143.276 275.994 142.629 276.348 142.373ZM261.797 143.923C261.248 142.922 260.747 141.726 261.504 140.774C263.201 138.369 265.252 135.476 268.096 135.073C270.098 134.621 271.904 134.829 273.845 134.377C273.894 135.024 273.552 136.379 273.504 136.977C273.296 138.674 272.246 140.42 271.294 141.726C269.902 143.276 269.097 144.021 266.851 144.875C266.094 145.071 265.3 145.278 264.495 145.278C263.445 145.278 262.444 144.924 261.797 143.923ZM292.596 146.072C292.4 147.475 292.547 149.221 294.146 149.819C296.905 151.98 301.104 153.127 304.351 152.981C307.549 152.871 311.553 152.822 314.104 150.771C317.852 147.781 314.202 143.471 311.248 141.628C307 139.175 302.447 137.82 298.296 134.975C297.051 134.524 297.906 133.474 298.65 133.23C301.446 131.57 304.803 131.679 308.099 131.521C309.051 130.679 309.246 129.873 309.051 128.677C308.355 126.931 307.049 126.98 305.254 126.821C302.3 127.029 299.151 127.871 296.404 128.97C295.049 129.824 293.401 130.019 291.949 130.581C290.85 131.423 289.996 132.522 290.044 134.023C290.252 135.427 291.448 135.879 292.254 136.88C294.805 138.821 298.003 140.371 301.153 141.323C302.349 142.031 308.697 144.924 310.296 146.072C310.796 146.572 310.699 147.329 310.003 147.622C309.6 147.781 307.5 148.281 307.146 148.281C303.997 148.22 300.604 148.721 297.955 146.67C296.648 145.425 295.245 144.778 293.548 144.472C293.304 145.022 292.901 145.522 292.596 146.072Z"/>
	<path fill="none" stroke="#FF69B4" stroke-width="3" stroke-miterlimit="10" d="M54.7974 289.529C54.0039 293.679 54.2969 298.525 56.7017 302.126C59.1553 305.373 62.0972 308.376 66.1987 309.426C68.4448 310.024 70.752 310.427 73.0957 310.427C74.6948 310.427 76.2939 310.22 77.9053 309.719C81.7505 309.573 85.144 308.572 88.9526 308.181C89.7461 307.925 90.7471 307.571 91.1987 306.875C91.1499 306.277 91.6504 304.726 90.5518 304.678C89.4043 304.324 88.3057 304.226 87.1948 304.226C84.9487 304.226 82.7515 304.726 80.1025 304.971C77.0508 305.276 73.4009 305.679 70.3003 305.63C67.2485 304.873 63.7451 304.177 62.0483 301.174C61.9019 301.028 61.7554 300.625 61.7554 300.576C61.7554 300.43 61.9019 300.222 62.0483 300.222C63.0981 300.43 64.6973 300.674 65.6494 300.576C67.7979 300.124 70.3003 299.624 71.8994 297.781L72.4976 297.781C74.3042 299.429 75.2441 301.369 78.1982 301.174C82.3486 301.43 83.8501 297.121 84.8511 293.972C87.9517 284.17 82.4951 271.78 72.4976 268.972C70.4468 269.521 68.0542 269.826 66.5039 271.474C60.9009 276.125 56.2012 282.18 54.7974 289.529ZM72.8516 287.978C73.8525 287.978 74.3042 286.977 74.0967 286.074C73.0469 284.28 71.3501 283.926 69.3481 284.121C66.5527 284.023 64.5508 285.427 62.4023 287.026C61.7554 287.429 60.498 288.772 59.8511 288.93C59.8511 288.869 59.8511 288.821 59.8511 288.772L59.8022 288.43C59.8022 288.369 59.8022 288.32 59.8022 288.271C59.8022 288.125 59.8511 287.673 59.8511 287.624C60.9009 284.17 63.2446 280.776 65.5518 278.127C67.3462 275.869 69.7021 274.526 72.4976 273.721C77.0508 274.721 79.4556 278.628 81.0547 282.571C82.1533 286.379 81.8481 291.921 79.1504 294.924C78.7964 295.119 78.3447 295.278 77.9053 295.278C77.1973 295.278 76.5503 294.924 76.5991 293.972C76.5991 293.874 76.5991 293.679 76.5503 293.374L76.355 291.421C76.2939 291.128 76.2939 290.871 76.2939 290.823C75.8057 289.773 74.8535 288.869 73.8525 288.32L72.8516 287.978ZM65.6982 295.278C64.4531 295.473 63.2446 294.729 63.6475 293.325C64.0991 291.274 66.1011 289.87 67.749 288.93C69.0552 288.369 70.1538 287.624 71.5454 287.978C71.7041 287.978 71.8506 288.125 71.8994 288.271C70.0439 289.272 69.8975 291.128 69.6533 293.02C69.0552 294.424 67.2485 295.229 65.6982 295.278ZM104.044 285.976C104.203 285.879 104.398 285.928 104.544 285.928C104.85 286.025 105.594 286.831 105.948 287.221C106.449 288.027 106.498 289.529 106.9 290.371C107.096 292.422 107.596 294.826 108.145 296.731C108.695 297.427 109.195 298.379 109.745 299.221C109.854 299.624 110.099 299.721 110.355 299.721C110.855 299.721 111.502 299.331 111.954 299.221C112.503 298.83 112.65 297.927 112.601 297.329C112.601 297.17 111.954 295.681 111.954 295.425L111.002 291.323C111.002 288.479 110.501 285.928 109.452 283.474C108.646 282.18 107.096 279.421 105.497 279.922C104.398 279.971 103.446 279.726 102.701 280.679C101.151 281.875 100.699 283.022 99.6005 284.377C99.1977 284.878 96.9516 287.124 96.4511 287.527C96.4511 287.27 96.5 286.477 96.5 285.671C96.5 284.023 96.5 283.523 96.146 282.18C95.6455 281.423 94.8032 281.179 93.8999 281.179C92.8501 281.13 92.0444 281.826 92.0444 282.925L92.0444 283.12C92.0444 283.23 92.0444 283.376 92.1054 283.572L92.3007 284.878C92.3496 285.073 92.3496 285.22 92.3496 285.329C92.0444 287.881 91.8491 292.58 91.3974 294.826C91.3974 295.119 91.2998 296.023 91.3974 296.377L93.5947 298.623C94.3027 298.769 94.8032 298.623 95.206 297.976C95.853 296.474 97.2446 294.375 98.0502 292.922C99.6494 290.481 101.7 287.978 104.044 285.976ZM133.998 292.373C135.951 294.472 137.904 297.219 140.004 299.026L140.199 299.123C141.603 299.88 142.299 300.576 143.8 300.222C144.545 300.027 145.546 299.673 145.997 299.026C146.095 298.672 146.449 298.074 146.351 297.72C146.205 297.573 145.851 297.17 145.704 297.121C144.606 296.975 144.105 296.12 142.848 295.229C142.445 294.729 140.7 293.471 140.297 292.971C138.795 290.53 137.245 287.527 135.902 284.78C135.499 284.17 134.706 283.828 133.998 283.523C133.851 283.376 133.4 283.022 133.351 282.876C133.754 281.924 132.35 281.68 131.801 281.277C130.299 281.13 128.651 280.874 127.052 280.874C125.001 280.874 122.999 281.228 121.351 282.571C118.556 284.927 114.845 287.771 114.699 291.726C114.149 293.972 115.346 295.779 116.603 297.72C117.897 299.27 120.35 300.173 122.401 299.929C126.796 299.978 130.299 296.621 133.046 293.63C133.253 293.276 133.644 292.629 133.998 292.373ZM119.447 293.923C118.898 292.922 118.397 291.726 119.154 290.774C120.851 288.369 122.902 285.476 125.746 285.073C127.748 284.621 129.555 284.829 131.495 284.377C131.544 285.024 131.202 286.379 131.154 286.977C130.946 288.674 129.896 290.42 128.944 291.726C127.553 293.276 126.747 294.021 124.501 294.875C123.744 295.071 122.951 295.278 122.145 295.278C121.095 295.278 120.094 294.924 119.447 293.923ZM149.452 286.221C147.853 292.873 148.146 298.171 148.195 304.531C148.451 308.425 148.805 313.027 150.746 316.531C151.344 317.178 152.248 318.63 153.249 318.13C153.847 318.02 154.494 317.275 154.848 316.872C155.153 316.079 155.3 315.481 154.848 314.626C153.053 311.526 152.052 307.68 152.297 304.226C152.297 301.321 152.455 296.67 152.455 295.376L152.651 295.376C154.75 297.671 157.753 300.576 161.196 299.77C164.406 299.978 168.996 297.72 170.046 294.424C170.4 291.128 170.046 287.429 167.494 284.975C165.602 282.119 162.196 280.581 159.145 279.775C158.498 279.678 157.997 279.58 157.497 279.58C156.996 279.58 156.496 279.678 155.8 279.873C152.699 281.13 150.6 282.778 149.452 286.221ZM156.447 292.519C155.898 291.628 156.154 290.676 156.105 289.675C156.752 287.978 157.851 285.83 159.596 284.975C160.951 284.573 161.696 285.22 162.746 286.221C165.004 288.43 166.2 290.53 165.297 293.471C164.699 294.973 163.051 295.681 161.403 295.681C160.549 295.681 159.645 295.473 158.949 295.071C158.547 294.826 156.703 292.922 156.447 292.519ZM172.296 271.731C171.698 272.878 172.149 274.27 173.248 274.929C174.798 275.625 176.947 277.126 178.802 276.821L179.901 276.821C180.499 276.321 180.352 275.173 179.901 274.575C179.803 274.477 178.094 272.622 177.996 272.378C177.252 271.377 176.348 269.924 175.006 270.119C173.895 270.022 172.699 270.681 172.296 271.731ZM175.494 297.073C175.604 297.72 176.202 298.83 176.446 299.27C177.044 299.88 177.801 300.027 178.656 299.88C179.351 299.477 179.4 298.428 179.595 297.72C179.595 297.475 179.949 294.826 179.901 293.923C179.254 291.079 178.399 288.723 178.35 285.671C178.094 285.073 177.655 284.072 177.044 283.779C176.055 283.572 175.054 283.877 174.554 284.719C174.505 285.622 174.505 286.77 174.554 287.576C174.7 288.979 175.25 295.73 175.494 297.073ZM183.6 286.428C183.502 287.075 184.344 287.978 184.845 288.479C185.553 288.772 187.005 288.979 187.848 288.93C189.496 289.028 191.644 288.43 193.194 288.222L195.148 288.222C196.295 288.369 197.955 288.869 198.944 288.723C200.055 288.076 200.946 287.527 201.654 286.672C201.849 285.83 201.495 285.073 200.494 284.377C199.75 284.023 197.699 284.072 196.295 283.974C195.05 283.73 193.951 284.28 192.755 284.17L192.499 284.17C191.302 284.023 189.752 283.779 188.299 283.779C187.604 283.779 186.944 283.828 186.346 283.974C185.296 284.475 183.697 285.329 183.6 286.428ZM204.894 286.172C204.345 289.077 204.247 294.326 204.247 297.524C204.553 298.428 205.248 299.77 206.152 300.32C206.603 300.674 207.104 300.93 207.604 300.93C207.995 300.93 208.398 300.722 208.703 300.32C209.545 298.879 210.595 297.329 209.655 295.62C208.947 292.971 209.448 290.322 209.301 287.624C209.802 286.172 210.644 285.122 211.547 283.926C211.596 283.877 211.803 283.62 211.852 283.62C213.549 282.68 215.405 283.022 217.199 282.973C219.201 283.12 220.605 284.28 222.497 285.329C223.351 285.72 224.853 285.976 225.744 285.83C226.403 285.671 226.049 284.231 226.098 283.62C224.694 282.229 221.655 280.178 220.055 279.177C218.554 278.371 216.406 277.981 214.306 277.981C212.548 277.981 210.851 278.274 209.655 278.872C207.348 280.971 205.456 282.925 204.894 286.172ZM227.896 296.072C227.7 297.475 227.847 299.221 229.446 299.819C232.205 301.98 236.404 303.127 239.651 302.981C242.849 302.871 246.853 302.822 249.405 300.771C253.152 297.781 249.502 293.471 246.548 291.628C242.3 289.175 237.747 287.82 233.596 284.975C232.351 284.524 233.206 283.474 233.95 283.23C236.746 281.57 240.103 281.68 243.399 281.521C244.351 280.679 244.546 279.873 244.351 278.677C243.655 276.931 242.349 276.98 240.554 276.821C237.6 277.029 234.451 277.871 231.704 278.97C230.349 279.824 228.701 280.019 227.249 280.581C226.15 281.423 225.296 282.522 225.344 284.023C225.552 285.427 226.748 285.879 227.554 286.88C230.105 288.821 233.303 290.371 236.453 291.323C237.649 292.031 243.997 294.924 245.596 296.072C246.096 296.572 245.999 297.329 245.303 297.622C244.9 297.781 242.801 298.281 242.447 298.281C239.297 298.22 235.904 298.721 233.255 296.67C231.948 295.425 230.545 294.778 228.848 294.472C228.604 295.022 228.201 295.522 227.896 296.072ZM251.152 300.722C250.895 301.223 250.798 301.479 250.847 301.98C251.347 302.578 251.945 303.53 252.653 303.323C252.848 303.274 253.044 303.225 253.251 303.03C254.594 302.37 254.948 300.979 256.205 299.575C263.603 290.224 268.205 282.18 273.405 272.475C276.152 269.228 277.299 264.87 278.849 265.627C279.948 265.029 280.803 261.575 280.204 259.524C279.545 258.474 278.544 257.778 277.446 257.876C276.701 257.973 275.895 258.376 275.102 259.28C275.004 259.377 274.846 259.927 274.699 260.476L274.455 261.977C273.698 263.076 272.905 265.176 272.746 265.53C269.902 271.523 265.654 277.92 262.346 284.28C258.354 289.272 254.997 295.278 251.152 300.722ZM277.555 289.822C277.348 291.775 277.653 293.972 278.801 295.522C280.546 297.781 283.354 299.331 286.1 300.222C288.554 300.979 290.898 301.321 293.4 301.772C295.195 302.273 296.598 302.627 298.454 302.419C299.394 302.126 300.749 301.174 301.005 300.222C301.103 299.77 300.456 298.721 300.053 298.379L293.998 297.073C291.447 296.621 288.798 296.23 286.345 295.278C285.002 294.778 283.903 293.826 282.951 292.678C281.755 292.08 282.646 289.822 282.597 289.175C284.098 287.075 285.698 284.78 288.298 284.121C289.555 284.072 290.702 283.877 291.85 284.621C292.399 284.927 293.144 286.929 293.4 287.576C293.803 288.674 295.048 288.174 295.903 288.222C296.501 288.174 296.952 287.429 297.197 286.977C297.294 285.378 297.245 283.572 296.244 282.229C294.804 280.776 293.095 278.921 290.849 279.031C287.602 278.42 284.196 280.019 281.999 282.522C279.399 284.719 278.044 286.575 277.555 289.822ZM322.248 292.373C324.201 294.472 326.154 297.219 328.254 299.026L328.449 299.123C329.853 299.88 330.549 300.576 332.05 300.222C332.795 300.027 333.796 299.673 334.247 299.026C334.345 298.672 334.699 298.074 334.601 297.72C334.455 297.573 334.101 297.17 333.954 297.121C332.856 296.975 332.355 296.12 331.098 295.229C330.695 294.729 328.949 293.471 328.547 292.971C327.045 290.53 325.495 287.527 324.152 284.78C323.749 284.17 322.956 283.828 322.248 283.523C322.101 283.376 321.65 283.022 321.601 282.876C322.004 281.924 320.6 281.68 320.05 281.277C318.549 281.13 316.901 280.874 315.302 280.874C313.251 280.874 311.249 281.228 309.601 282.571C306.806 284.927 303.095 287.771 302.948 291.726C302.399 293.972 303.595 295.779 304.853 297.72C306.147 299.27 308.6 300.173 310.651 299.929C315.046 299.978 318.549 296.621 321.296 293.63C321.503 293.276 321.894 292.629 322.248 292.373ZM307.697 293.923C307.148 292.922 306.647 291.726 307.404 290.774C309.101 288.369 311.152 285.476 313.996 285.073C315.998 284.621 317.804 284.829 319.745 284.377C319.794 285.024 319.452 286.379 319.404 286.977C319.196 288.674 318.146 290.42 317.194 291.726C315.802 293.276 314.997 294.021 312.751 294.875C311.994 295.071 311.2 295.278 310.395 295.278C309.345 295.278 308.344 294.924 307.697 293.923ZM348.994 285.976C349.152 285.879 349.348 285.928 349.494 285.928C349.799 286.025 350.544 286.831 350.898 287.221C351.398 288.027 351.447 289.529 351.85 290.371C352.045 292.422 352.546 294.826 353.095 296.731C353.645 297.427 354.145 298.379 354.694 299.221C354.804 299.624 355.048 299.721 355.305 299.721C355.805 299.721 356.452 299.331 356.904 299.221C357.453 298.83 357.6 297.927 357.551 297.329C357.551 297.17 356.904 295.681 356.904 295.425L355.952 291.323C355.952 288.479 355.451 285.928 354.401 283.474C353.596 282.18 352.045 279.421 350.446 279.922C349.348 279.971 348.396 279.726 347.651 280.679C346.101 281.875 345.649 283.022 344.55 284.377C344.148 284.878 341.901 287.124 341.401 287.527C341.401 287.27 341.45 286.477 341.45 285.671C341.45 284.023 341.45 283.523 341.096 282.18C340.595 281.423 339.753 281.179 338.85 281.179C337.8 281.13 336.994 281.826 336.994 282.925L336.994 283.12C336.994 283.23 336.994 283.376 337.055 283.572L337.251 284.878C337.299 285.073 337.299 285.22 337.299 285.329C336.994 287.881 336.799 292.58 336.347 294.826C336.347 295.119 336.25 296.023 336.347 296.377L338.544 298.623C339.253 298.769 339.753 298.623 340.156 297.976C340.803 296.474 342.194 294.375 343 292.922C344.599 290.481 346.65 287.978 348.994 285.976ZM359.746 278.078C359.294 278.921 359.404 280.227 359.453 281.228C360.051 282.278 361.247 284.328 361.65 285.378C362.151 287.673 362.847 289.98 363.555 292.031C364.8 294.619 365.752 296.621 367.998 298.623C368.804 299.331 368.95 299.331 370.049 299.331C371.245 299.429 371.294 299.221 372.246 298.525C374.553 296.975 375.798 295.022 377.495 292.776C380.205 289.431 382.195 286.172 384.453 282.18C384.746 281.472 385.405 280.227 385.405 279.678C385.405 278.677 384.648 277.627 383.794 277.48C383.098 277.419 382.146 277.224 381.597 277.773C380.046 279.873 379.448 282.571 378.105 284.719C376.445 287.771 374.504 290.029 371.953 293.081C371.453 293.52 370.854 293.728 370.195 293.569C367.9 293.081 367.156 289.577 366.399 287.881C365.654 284.927 364.995 281.728 364.849 278.725C364.556 277.724 363.347 276.125 362.297 276.528C360.955 276.577 360.649 277.224 359.746 278.078ZM405.098 292.373C407.051 294.472 409.004 297.219 411.104 299.026L411.299 299.123C412.703 299.88 413.398 300.576 414.9 300.222C415.645 300.027 416.646 299.673 417.097 299.026C417.195 298.672 417.549 298.074 417.451 297.72C417.305 297.573 416.951 297.17 416.804 297.121C415.706 296.975 415.205 296.12 413.948 295.229C413.545 294.729 411.799 293.471 411.396 292.971C409.895 290.53 408.345 287.527 407.002 284.78C406.599 284.17 405.806 283.828 405.098 283.523C404.951 283.376 404.5 283.022 404.451 282.876C404.854 281.924 403.45 281.68 402.9 281.277C401.399 281.13 399.751 280.874 398.152 280.874C396.101 280.874 394.099 281.228 392.451 282.571C389.656 284.927 385.945 287.771 385.798 291.726C385.249 293.972 386.445 295.779 387.703 297.72C388.997 299.27 391.45 300.173 393.501 299.929C397.896 299.978 401.399 296.621 404.146 293.63C404.353 293.276 404.744 292.629 405.098 292.373ZM390.547 293.923C389.998 292.922 389.497 291.726 390.254 290.774C391.951 288.369 394.001 285.476 396.846 285.073C398.848 284.621 400.654 284.829 402.595 284.377C402.644 285.024 402.302 286.379 402.253 286.977C402.046 288.674 400.996 290.42 400.044 291.726C398.652 293.276 397.847 294.021 395.601 294.875C394.844 295.071 394.05 295.278 393.245 295.278C392.195 295.278 391.194 294.924 390.547 293.923ZM421.346 296.072C421.15 297.475 421.297 299.221 422.896 299.819C425.655 301.98 429.854 303.127 433.101 302.981C436.299 302.871 440.303 302.822 442.854 300.771C446.602 297.781 442.952 293.471 439.998 291.628C435.75 289.175 431.197 287.82 427.046 284.975C425.801 284.524 426.656 283.474 427.4 283.23C430.196 281.57 433.553 281.68 436.849 281.521C437.801 280.679 437.996 279.873 437.801 278.677C437.105 276.931 435.799 276.98 434.004 276.821C431.05 277.029 427.901 277.871 425.154 278.97C423.799 279.824 422.151 280.019 420.699 280.581C419.6 281.423 418.745 282.522 418.794 284.023C419.002 285.427 420.198 285.879 421.004 286.88C423.555 288.821 426.753 290.371 429.903 291.323C431.099 292.031 437.447 294.924 439.046 296.072C439.546 296.572 439.449 297.329 438.753 297.622C438.35 297.781 436.25 298.281 435.896 298.281C432.747 298.22 429.353 298.721 426.704 296.67C425.398 295.425 423.995 294.778 422.298 294.472C422.054 295.022 421.651 295.522 421.346 296.072Z"/>
	<rect fill="none" stroke="gray" stroke-width="3" stroke-miterlimit="10" x="50" y="450" width="100" height="100"/>
	<rect fill="none" stroke="gray" stroke-width="3" stroke-miterlimit="10" x="50" y="450" width="100" height="100"/>
	<path fill="#FF69B4" d="M590 120Q590 122.209 589.892 124.416Q589.783 126.623 589.567 128.822Q589.35 131.02 589.026 133.206Q588.702 135.391 588.271 137.558Q587.84 139.725 587.303 141.868Q586.766 144.011 586.125 146.126Q585.483 148.24 584.739 150.32Q583.995 152.4 583.149 154.441Q582.304 156.483 581.359 158.48Q580.414 160.477 579.373 162.426Q578.331 164.374 577.196 166.269Q576.06 168.164 574.832 170.001Q573.605 171.838 572.289 173.613Q570.973 175.388 569.571 177.095Q568.169 178.803 566.686 180.44Q565.202 182.077 563.64 183.64Q562.077 185.202 560.44 186.686Q558.803 188.169 557.095 189.571Q555.387 190.973 553.613 192.289Q551.838 193.605 550.001 194.832Q548.164 196.06 546.269 197.196Q544.374 198.331 542.426 199.373Q540.477 200.414 538.48 201.359Q536.483 202.304 534.441 203.149Q532.4 203.995 530.32 204.739Q528.24 205.483 526.126 206.125Q524.011 206.766 521.868 207.303Q519.725 207.84 517.558 208.271Q515.391 208.702 513.206 209.026Q511.02 209.35 508.822 209.567Q506.623 209.783 504.416 209.892Q502.209 210 500 210Q497.791 210 495.584 209.892Q493.377 209.783 491.178 209.567Q488.98 209.35 486.794 209.026Q484.609 208.702 482.442 208.271Q480.275 207.84 478.132 207.303Q475.989 206.766 473.874 206.125Q471.76 205.483 469.68 204.739Q467.6 203.995 465.558 203.149Q463.517 202.304 461.52 201.359Q459.523 200.414 457.574 199.373Q455.626 198.331 453.731 197.196Q451.836 196.06 449.999 194.832Q448.162 193.605 446.387 192.289Q444.612 190.973 442.905 189.571Q441.197 188.169 439.56 186.686Q437.923 185.202 436.36 183.64Q434.798 182.077 433.314 180.44Q431.831 178.803 430.429 177.095Q429.027 175.388 427.711 173.613Q426.395 171.838 425.168 170.001Q423.94 168.164 422.804 166.269Q421.669 164.374 420.627 162.426Q419.586 160.477 418.641 158.48Q417.696 156.483 416.851 154.441Q416.005 152.4 415.261 150.32Q414.517 148.24 413.875 146.126Q413.234 144.011 412.697 141.868Q412.16 139.725 411.729 137.558Q411.298 135.391 410.974 133.206Q410.65 131.02 410.433 128.822Q410.217 126.623 410.108 124.416Q410 122.209 410 120Q410 117.791 410.108 115.584Q410.217 113.377 410.433 111.178Q410.65 108.98 410.974 106.794Q411.298 104.609 411.729 102.442Q412.16 100.275 412.697 98.1318Q413.234 95.9886 413.875 93.8744Q414.517 91.7601 415.261 89.6799Q416.005 87.5997 416.851 85.5585Q417.696 83.5173 418.641 81.52Q419.586 79.5228 420.627 77.5743Q421.669 75.6258 422.804 73.7307Q423.94 71.8357 425.168 69.9987Q426.395 68.1616 427.711 66.3871Q429.027 64.6125 430.429 62.9046Q431.831 61.1967 433.314 59.5597Q434.798 57.9226 436.36 56.3604Q437.923 54.7981 439.56 53.3144Q441.197 51.8307 442.905 50.4291Q444.612 49.0274 446.387 47.7113Q448.162 46.3952 449.999 45.1677Q451.836 43.9403 453.731 42.8044Q455.626 41.6686 457.574 40.6271Q459.523 39.5856 461.52 38.641Q463.517 37.6963 465.558 36.8508Q467.6 36.0053 469.68 35.261Q471.76 34.5167 473.874 33.8754Q475.989 33.234 478.132 32.6972Q480.275 32.1604 482.442 31.7293Q484.609 31.2983 486.794 30.9741Q488.98 30.6499 491.178 30.4334Q493.377 30.2168 495.584 30.1084Q497.791 30 500 30Q502.209 30 504.416 30.1084Q506.623 30.2168 508.822 30.4334Q511.02 30.6499 513.206 30.9741Q515.391 31.2983 517.558 31.7293Q519.725 32.1604 521.868 32.6972Q524.011 33.234 526.126 33.8754Q528.24 34.5167 530.32 35.261Q532.4 36.0053 534.441 36.8508Q536.483 37.6963 538.48 38.641Q540.477 39.5856 542.426 40.6271Q544.374 41.6686 546.269 42.8044Q548.164 43.9403 550.001 45.1677Q551.838 46.3952 553.613 47.7113Q555.387 49.0274 557.095 50.4291Q558.803 51.8307 560.44 53.3144Q562.077 54.7981 563.64 56.3604Q565.202 57.9226 566.686 59.5597Q568.169 61.1967 569.571 62.9046Q570.973 64.6125 572.289 66.3871Q573.605 68.1616 574.832 69.9987Q576.06 71.8357 577.195 73.7307Q578.331 75.6258 579.373 77.5743Q580.414 79.5228 581.359 81.52Q582.304 83.5173 583.149 85.5585Q583.995 87.5997 584.739 89.6799Q585.483 91.7601 586.125 93.8744Q586.766 95.9886 587.303 98.1318Q587.84 100.275 588.271 102.442Q588.702 104.609 589.026 106.794Q589.35 108.98 589.567 111.178Q589.783 113.377 589.892 115.584Q590 117.791 590 120"/>
</svg>