<svg width="193" height="107" viewBox="0 0 193 107" xmlns="http://www.w3.org/2000/svg">
  <path d="M2.933,89.89 L89.005,3.818 Q90.412,2.411 92.249,1.65 Q94.087,0.889 96.076,0.889 Q98.065,0.889 99.903,1.65 Q101.741,2.411 103.147,3.818 L189.22,89.89 Q190.626,91.296 191.387,93.134 Q192.148,94.972 192.148,96.961 Q192.148,98.95 191.387,100.788 Q190.626,102.625 189.219,104.032 Q187.813,105.439 185.975,106.2 Q184.138,106.961 182.148,106.961 Q180.159,106.961 178.322,106.2 Q176.484,105.439 175.077,104.032 L89.005,17.96 L96.076,10.889 L103.147,17.96 L17.075,104.032 Q15.668,105.439 13.831,106.2 Q11.993,106.961 10.004,106.961 Q8.015,106.961 6.177,106.2 Q4.339,105.439 2.933,104.032 Q1.526,102.625 0.765,100.788 Q0.004,98.95 0.004,96.961 Q0.004,94.972 0.765,93.134 Q1.526,91.296 2.933,89.89 Z" fill="#008000"/>
</svg>